<svg width="20" height="20" viewBox="0 0 20 20" fill="none" xmlns="http://www.w3.org/2000/svg">
<path d="M8.07969 11.0415C8.01969 11.0415 6.69969 11.0415 6.09969 11.0415C5.77969 11.0415 5.67969 10.9215 5.67969 10.6215C5.67969 9.82148 5.67969 9.00148 5.67969 8.20148C5.67969 7.88148 5.79969 7.78148 6.09969 7.78148H8.07969C8.07969 7.72148 8.07969 6.56148 8.07969 6.02148C8.07969 5.22148 8.21969 4.46148 8.61969 3.76148C9.03969 3.04148 9.63969 2.56148 10.3997 2.28148C10.8997 2.10148 11.3997 2.02148 11.9397 2.02148H13.8997C14.1797 2.02148 14.2997 2.14148 14.2997 2.42148V4.70148C14.2997 4.98148 14.1797 5.10148 13.8997 5.10148C13.3597 5.10148 12.8197 5.10148 12.2797 5.12148C11.7397 5.12148 11.4597 5.38148 11.4597 5.94148C11.4397 6.54148 11.4597 7.12148 11.4597 7.74148H13.7797C14.0997 7.74148 14.2197 7.86148 14.2197 8.18148V10.6015C14.2197 10.9215 14.1197 11.0215 13.7797 11.0215C13.0597 11.0215 11.5197 11.0215 11.4597 11.0215V17.5415C11.4597 17.8815 11.3597 18.0015 10.9997 18.0015C10.1597 18.0015 9.33969 18.0015 8.49969 18.0015C8.19969 18.0015 8.07969 17.8815 8.07969 17.5815C8.07969 15.4815 8.07969 11.1015 8.07969 11.0415Z" fill="#1F6BFF"/>
</svg>
