<svg width="14" height="14" viewBox="0 0 14 14" fill="none" xmlns="http://www.w3.org/2000/svg">
<path d="M1.70899 0.0371099C2.62502 0.0378559 3.38051 0.794443 3.37853 1.71503C3.37634 2.67897 2.57639 3.4055 1.69771 3.38457C0.806487 3.4026 0.023262 2.65822 0.0234375 1.70867C0.0234375 0.787728 0.781867 0.0364077 1.70899 0.0371099Z" fill="#1F6BFF"/>
<path d="M2.67771 13.961H0.7151C0.460388 13.961 0.253906 13.7545 0.253906 13.4998V5.12721C0.253906 4.8725 0.460388 4.66602 0.7151 4.66602H2.67771C2.93242 4.66602 3.1389 4.8725 3.1389 5.12721V13.4998C3.13885 13.7545 2.93242 13.961 2.67771 13.961Z" fill="#1F6BFF"/>
<path d="M13.9816 7.60397C13.9816 5.84873 12.5587 4.42578 10.8034 4.42578H10.3001C9.33975 4.42578 8.49135 4.90492 7.98105 5.63729C7.92541 5.71711 7.87388 5.80001 7.82658 5.88559C7.81021 5.88313 7.80051 5.88186 7.80029 5.8823V4.85459C7.80029 4.74887 7.71458 4.66311 7.60882 4.66311H5.16022C5.0545 4.66311 4.96875 4.74882 4.96875 4.85459V13.7667C4.96875 13.8725 5.05441 13.9582 5.16014 13.9582L7.66209 13.9588C7.76786 13.9589 7.85361 13.8731 7.85361 13.7673V8.61856C7.85361 7.72856 8.56346 6.98957 9.45341 6.97953C9.90772 6.97439 10.3196 7.15643 10.6164 7.45344C10.9094 7.74621 11.0905 8.15101 11.0905 8.59794V13.768C11.0905 13.8737 11.1762 13.9594 11.2819 13.9595L13.79 13.9601C13.8958 13.9601 13.9815 13.8744 13.9815 13.7686V7.60397H13.9816Z" fill="#1F6BFF"/>
</svg>
