<svg width="20" height="20" viewBox="0 0 20 20" fill="none" xmlns="http://www.w3.org/2000/svg">
<path d="M14.5862 0H5.41381C2.42858 0 0 2.42858 0 5.41381V14.5863C0 17.5714 2.42858 20 5.41381 20H14.5863C17.5714 20 20 17.5714 20 14.5863V5.41381C20 2.42858 17.5714 0 14.5862 0V0ZM18.8275 14.5863C18.8275 16.9249 16.9249 18.8275 14.5862 18.8275H5.41381C3.0751 18.8275 1.17248 16.9249 1.17248 14.5863V5.41381C1.17248 3.0751 3.0751 1.17248 5.41381 1.17248H14.5863C16.9249 1.17248 18.8275 3.0751 18.8275 5.41381V14.5863Z" fill="#1F6BFF"/>
<path d="M9.99984 4.53125C6.9844 4.53125 4.53125 6.9844 4.53125 9.99984C4.53125 13.0153 6.9844 15.4684 9.99984 15.4684C13.0153 15.4684 15.4684 13.0153 15.4684 9.99984C15.4684 6.9844 13.0153 4.53125 9.99984 4.53125ZM9.99984 14.2959C7.63107 14.2959 5.70373 12.3688 5.70373 9.99984C5.70373 7.63107 7.63107 5.70373 9.99984 5.70373C12.3688 5.70373 14.2959 7.63107 14.2959 9.99984C14.2959 12.3688 12.3688 14.2959 9.99984 14.2959Z" fill="#1F6BFF"/>
<path d="M15.5964 2.58789C14.7053 2.58789 13.9805 3.31283 13.9805 4.20379C13.9805 5.09491 14.7053 5.81985 15.5964 5.81985C16.4875 5.81985 17.2124 5.09491 17.2124 4.20379C17.2124 3.31268 16.4875 2.58789 15.5964 2.58789ZM15.5964 4.64721C15.3519 4.64721 15.153 4.44824 15.153 4.20379C15.153 3.9592 15.3519 3.76037 15.5964 3.76037C15.841 3.76037 16.0399 3.9592 16.0399 4.20379C16.0399 4.44824 15.841 4.64721 15.5964 4.64721Z" fill="#1F6BFF"/>
</svg>
