<svg width="12" height="12" viewBox="0 0 12 12" fill="none" xmlns="http://www.w3.org/2000/svg">
<path d="M9.12306 7.93849C8.73102 7.55144 8.24159 7.55144 7.85205 7.93849C7.55489 8.23314 7.25774 8.5278 6.96558 8.82745C6.88567 8.90985 6.81825 8.92733 6.72087 8.8724C6.52859 8.76752 6.32383 8.68262 6.13904 8.56775C5.27755 8.02588 4.55589 7.3292 3.91664 6.54511C3.59951 6.15557 3.31734 5.73855 3.12007 5.2691C3.08011 5.17421 3.0876 5.11179 3.16501 5.03438C3.46217 4.74721 3.75183 4.45255 4.04399 4.1579C4.45101 3.74838 4.45101 3.26894 4.04149 2.85692C3.80926 2.62219 3.57703 2.39246 3.3448 2.15773C3.10508 1.91801 2.86786 1.6758 2.62564 1.43857C2.2336 1.05652 1.74417 1.05652 1.35463 1.44107C1.05498 1.73573 0.767811 2.03787 0.463166 2.32754C0.180995 2.59472 0.0386615 2.92184 0.00869642 3.3039C-0.0387482 3.92567 0.113574 4.51249 0.328324 5.08432C0.767811 6.26794 1.43703 7.31921 2.24858 8.28308C3.3448 9.58656 4.65328 10.6179 6.18399 11.362C6.87319 11.6966 7.58736 11.9538 8.36395 11.9962C8.89833 12.0262 9.36278 11.8914 9.73485 11.4744C9.98955 11.1897 10.2767 10.93 10.5464 10.6578C10.9459 10.2533 10.9484 9.76385 10.5514 9.36432C10.077 8.88738 9.60001 8.41293 9.12306 7.93849Z" fill="#1F6BFF"/>
<path d="M8.64434 5.94832L9.56577 5.791C9.42094 4.94449 9.0214 4.17788 8.41461 3.56859C7.77286 2.92684 6.96131 2.52232 6.06735 2.39746L5.9375 3.32388C6.62919 3.42127 7.25846 3.7334 7.75538 4.23032C8.22483 4.69977 8.53197 5.29408 8.64434 5.94832Z" fill="#1F6BFF"/>
<path d="M10.0878 1.94273C9.02405 0.878975 7.67812 0.207258 6.19235 0L6.0625 0.926419C7.346 1.10621 8.50964 1.68803 9.42857 2.60446C10.3001 3.47594 10.8719 4.57716 11.0791 5.78825L12.0006 5.63093C11.7584 4.22757 11.0966 2.95405 10.0878 1.94273Z" fill="#1F6BFF"/>
</svg>
